<svg width="200" height="200" viewBox="0 0 200 200" fill="none" xmlns="http://www.w3.org/2000/svg">
<path d="M200 100C200 155.228 155.228 200 100 200C44.7715 200 0 155.228 0 100C0 44.7715 44.7715 0 100 0C155.228 0 200 44.7715 200 100Z" fill="#AD6161"/>
<rect x="15.6333" y="124.087" width="42.2193" height="49.315" rx="9.5" transform="rotate(-18.5825 15.6333 124.087)" fill="#D9D9D9" stroke="black"/>
<line x1="25.808" y1="137.263" x2="56.771" y2="126.942" stroke="black"/>
<line x1="32.9037" y1="164.356" x2="50.3204" y2="158.551" stroke="black"/>
<line x1="31.6136" y1="154.68" x2="62.5766" y2="144.359" stroke="black"/>
<line x1="29.0333" y1="147.584" x2="59.9964" y2="137.263" stroke="black"/>
<line x1="27.7432" y1="142.424" x2="58.7062" y2="132.103" stroke="black"/>
<path d="M28.6621 126.603L28.4369 125.937L33.0876 124.366L33.3128 125.032L31.3629 125.691L33.2333 131.225L32.4824 131.479L30.612 125.944L28.6621 126.603ZM37.0178 130.068C36.7231 130.167 36.4369 130.202 36.1592 130.173C35.8808 130.141 35.6351 130.043 35.4222 129.878C35.2086 129.712 35.0506 129.478 34.9483 129.175C34.8582 128.908 34.8377 128.675 34.8868 128.474C34.9351 128.271 35.031 128.092 35.1746 127.938C35.3182 127.784 35.4881 127.648 35.6843 127.53C35.8819 127.409 36.0839 127.298 36.2903 127.197C36.5607 127.065 36.7806 126.96 36.95 126.883C37.1208 126.802 37.2388 126.725 37.3038 126.652C37.3709 126.577 37.385 126.482 37.3461 126.367L37.3379 126.343C37.237 126.044 37.0768 125.84 36.8573 125.73C36.6399 125.619 36.3667 125.619 36.0377 125.73C35.6965 125.845 35.4543 126.01 35.311 126.225C35.1677 126.44 35.0854 126.646 35.0639 126.842L34.3038 126.829C34.3295 126.505 34.4166 126.231 34.5652 126.005C34.7152 125.777 34.8997 125.591 35.1188 125.447C35.3392 125.3 35.5665 125.188 35.8006 125.108C35.95 125.058 36.1277 125.018 36.3337 124.989C36.5411 124.957 36.7541 124.965 36.9726 125.013C37.1931 125.06 37.4011 125.173 37.5966 125.352C37.792 125.531 37.9522 125.805 38.077 126.174L39.1125 129.239L38.398 129.48L38.1852 128.85L38.1488 128.863C38.1345 128.98 38.0902 129.115 38.0161 129.268C37.9419 129.422 37.8246 129.57 37.6642 129.714C37.5038 129.859 37.2883 129.976 37.0178 130.068ZM36.9099 129.389C37.1925 129.294 37.4119 129.158 37.5682 128.981C37.7265 128.804 37.8254 128.611 37.8649 128.402C37.9065 128.192 37.8946 127.99 37.8291 127.797L37.6081 127.143C37.5901 127.189 37.5347 127.245 37.442 127.31C37.3506 127.372 37.2421 127.437 37.1163 127.504C36.992 127.569 36.8699 127.63 36.7502 127.689C36.6319 127.745 36.536 127.79 36.4628 127.826C36.2852 127.913 36.1249 128.011 35.9819 128.121C35.8402 128.227 35.7379 128.35 35.6752 128.491C35.6137 128.628 35.6137 128.788 35.6751 128.97C35.759 129.218 35.9143 129.375 36.141 129.44C36.369 129.502 36.6253 129.485 36.9099 129.389ZM42.4913 124.075L41.9108 124.474C41.8343 124.381 41.7396 124.297 41.6268 124.222C41.5153 124.145 41.3817 124.096 41.2259 124.075C41.0702 124.053 40.8884 124.077 40.6805 124.148C40.3959 124.244 40.1809 124.389 40.0355 124.585C39.8914 124.777 39.8531 124.974 39.9207 125.174C39.9807 125.351 40.0927 125.47 40.2567 125.529C40.4206 125.588 40.6515 125.606 40.9492 125.582L41.6968 125.518C42.1468 125.478 42.5088 125.528 42.7829 125.667C43.0564 125.804 43.248 126.035 43.3578 126.36C43.4479 126.626 43.4517 126.89 43.3692 127.152C43.2888 127.413 43.1328 127.65 42.9012 127.864C42.6696 128.077 42.3732 128.245 42.0119 128.367C41.5375 128.527 41.1101 128.557 40.7297 128.456C40.3492 128.355 40.0508 128.121 39.8343 127.753L40.4553 127.354C40.6044 127.583 40.79 127.729 41.0119 127.794C41.2359 127.857 41.4942 127.84 41.7869 127.741C42.12 127.628 42.3605 127.468 42.5086 127.261C42.658 127.051 42.6989 126.846 42.6313 126.646C42.5768 126.484 42.4745 126.368 42.3247 126.298C42.1741 126.225 41.9726 126.201 41.72 126.225L40.8835 126.306C40.4235 126.349 40.0577 126.298 39.7863 126.153C39.5161 126.006 39.3268 125.772 39.2184 125.451C39.1297 125.189 39.1249 124.932 39.2041 124.68C39.2852 124.428 39.4345 124.201 39.652 123.999C39.8715 123.797 40.1447 123.64 40.4717 123.53C40.932 123.374 41.3274 123.353 41.658 123.466C41.9907 123.579 42.2684 123.782 42.4913 124.075ZM44.9645 125.372L44.6536 124.492L44.799 124.443L46.1337 121.684L47.0179 121.385L45.5908 124.31L45.5302 124.33L44.9645 125.372ZM44.8714 127.292L42.7758 121.091L43.4904 120.85L45.586 127.051L44.8714 127.292ZM47.8265 126.294L45.2322 124.606L45.5731 123.938L48.7349 125.987L47.8265 126.294Z" fill="black"/>
<rect x="130.633" y="117.087" width="42.2193" height="49.315" rx="9.5" transform="rotate(-18.5825 130.633 117.087)" fill="#D9D9D9" stroke="black"/>
<line x1="140.808" y1="130.263" x2="171.771" y2="119.942" stroke="black"/>
<line x1="147.904" y1="157.356" x2="165.32" y2="151.551" stroke="black"/>
<line x1="146.614" y1="147.68" x2="177.577" y2="137.359" stroke="black"/>
<line x1="144.033" y1="140.584" x2="174.996" y2="130.263" stroke="black"/>
<line x1="142.743" y1="135.424" x2="173.706" y2="125.103" stroke="black"/>
<path d="M143.662 119.603L143.437 118.937L148.088 117.366L148.313 118.032L146.363 118.691L148.233 124.225L147.482 124.479L145.612 118.944L143.662 119.603ZM152.018 123.068C151.723 123.167 151.437 123.202 151.159 123.173C150.881 123.141 150.635 123.043 150.422 122.878C150.209 122.712 150.051 122.478 149.948 122.175C149.858 121.908 149.838 121.675 149.887 121.474C149.935 121.271 150.031 121.092 150.175 120.938C150.318 120.784 150.488 120.648 150.684 120.53C150.882 120.409 151.084 120.298 151.29 120.197C151.561 120.065 151.781 119.96 151.95 119.883C152.121 119.802 152.239 119.725 152.304 119.652C152.371 119.577 152.385 119.482 152.346 119.367L152.338 119.343C152.237 119.044 152.077 118.84 151.857 118.73C151.64 118.619 151.367 118.619 151.038 118.73C150.697 118.845 150.454 119.01 150.311 119.225C150.168 119.44 150.085 119.646 150.064 119.842L149.304 119.829C149.329 119.505 149.417 119.231 149.565 119.005C149.715 118.777 149.9 118.591 150.119 118.447C150.339 118.3 150.566 118.188 150.801 118.108C150.95 118.058 151.128 118.018 151.334 117.989C151.541 117.957 151.754 117.965 151.973 118.013C152.193 118.06 152.401 118.173 152.597 118.352C152.792 118.531 152.952 118.805 153.077 119.174L154.113 122.239L153.398 122.48L153.185 121.85L153.149 121.863C153.134 121.98 153.09 122.115 153.016 122.268C152.942 122.422 152.825 122.57 152.664 122.714C152.504 122.859 152.288 122.976 152.018 123.068ZM151.91 122.389C152.192 122.294 152.412 122.158 152.568 121.981C152.726 121.804 152.825 121.611 152.865 121.402C152.907 121.192 152.895 120.99 152.829 120.797L152.608 120.143C152.59 120.189 152.535 120.245 152.442 120.31C152.351 120.372 152.242 120.437 152.116 120.504C151.992 120.569 151.87 120.63 151.75 120.689C151.632 120.745 151.536 120.79 151.463 120.826C151.285 120.913 151.125 121.011 150.982 121.121C150.84 121.227 150.738 121.35 150.675 121.491C150.614 121.628 150.614 121.788 150.675 121.97C150.759 122.218 150.914 122.375 151.141 122.44C151.369 122.502 151.625 122.485 151.91 122.389ZM157.491 117.075L156.911 117.474C156.834 117.381 156.74 117.297 156.627 117.222C156.515 117.145 156.382 117.096 156.226 117.075C156.07 117.053 155.888 117.077 155.68 117.148C155.396 117.244 155.181 117.389 155.035 117.585C154.891 117.777 154.853 117.974 154.921 118.174C154.981 118.351 155.093 118.47 155.257 118.529C155.421 118.588 155.651 118.606 155.949 118.582L156.697 118.518C157.147 118.478 157.509 118.528 157.783 118.667C158.056 118.804 158.248 119.035 158.358 119.36C158.448 119.626 158.452 119.89 158.369 120.152C158.289 120.413 158.133 120.65 157.901 120.864C157.67 121.077 157.373 121.245 157.012 121.367C156.538 121.527 156.11 121.557 155.73 121.456C155.349 121.355 155.051 121.121 154.834 120.753L155.455 120.354C155.604 120.583 155.79 120.729 156.012 120.794C156.236 120.857 156.494 120.84 156.787 120.741C157.12 120.628 157.361 120.468 157.509 120.261C157.658 120.051 157.699 119.846 157.631 119.646C157.577 119.484 157.475 119.368 157.325 119.298C157.174 119.225 156.973 119.201 156.72 119.225L155.883 119.306C155.423 119.349 155.058 119.298 154.786 119.153C154.516 119.006 154.327 118.772 154.218 118.451C154.13 118.189 154.125 117.932 154.204 117.68C154.285 117.428 154.435 117.201 154.652 116.999C154.871 116.797 155.145 116.64 155.472 116.53C155.932 116.374 156.327 116.353 156.658 116.466C156.991 116.579 157.268 116.782 157.491 117.075ZM159.965 118.372L159.654 117.492L159.799 117.443L161.134 114.684L162.018 114.385L160.591 117.31L160.53 117.33L159.965 118.372ZM159.871 120.292L157.776 114.091L158.49 113.85L160.586 120.051L159.871 120.292ZM162.827 119.294L160.232 117.606L160.573 116.938L163.735 118.987L162.827 119.294Z" fill="black"/>
<rect x="50.6333" y="145.087" width="42.2193" height="49.315" rx="9.5" transform="rotate(-18.5825 50.6333 145.087)" fill="#D9D9D9" stroke="black"/>
<line x1="60.808" y1="158.263" x2="91.771" y2="147.942" stroke="black"/>
<line x1="67.9037" y1="185.356" x2="85.3204" y2="179.551" stroke="black"/>
<line x1="66.6136" y1="175.68" x2="97.5766" y2="165.359" stroke="black"/>
<line x1="64.0333" y1="168.584" x2="94.9964" y2="158.263" stroke="black"/>
<line x1="62.7432" y1="163.424" x2="93.7062" y2="153.103" stroke="black"/>
<path d="M63.6621 147.603L63.4369 146.937L68.0876 145.366L68.3128 146.032L66.3629 146.691L68.2333 152.225L67.4824 152.479L65.612 146.944L63.6621 147.603ZM72.0178 151.068C71.7231 151.167 71.4369 151.202 71.1592 151.173C70.8808 151.141 70.6351 151.043 70.4222 150.878C70.2086 150.712 70.0506 150.478 69.9483 150.175C69.8582 149.908 69.8377 149.675 69.8868 149.474C69.9351 149.271 70.031 149.092 70.1746 148.938C70.3182 148.784 70.4881 148.648 70.6843 148.53C70.8819 148.409 71.0839 148.298 71.2903 148.197C71.5607 148.065 71.7806 147.96 71.95 147.883C72.1208 147.802 72.2388 147.725 72.3038 147.652C72.3709 147.577 72.385 147.482 72.3461 147.367L72.3379 147.343C72.237 147.044 72.0768 146.84 71.8573 146.73C71.6399 146.619 71.3667 146.619 71.0377 146.73C70.6965 146.845 70.4543 147.01 70.311 147.225C70.1677 147.44 70.0854 147.646 70.0639 147.842L69.3038 147.829C69.3295 147.505 69.4166 147.231 69.5652 147.005C69.7152 146.777 69.8997 146.591 70.1188 146.447C70.3392 146.3 70.5665 146.188 70.8006 146.108C70.95 146.058 71.1277 146.018 71.3337 145.989C71.5411 145.957 71.7541 145.965 71.9726 146.013C72.1931 146.06 72.4011 146.173 72.5966 146.352C72.792 146.531 72.9522 146.805 73.077 147.174L74.1125 150.239L73.398 150.48L73.1852 149.85L73.1488 149.863C73.1345 149.98 73.0902 150.115 73.0161 150.268C72.9419 150.422 72.8246 150.57 72.6642 150.714C72.5038 150.859 72.2883 150.976 72.0178 151.068ZM71.9099 150.389C72.1925 150.294 72.4119 150.158 72.5682 149.981C72.7265 149.804 72.8254 149.611 72.8649 149.402C72.9065 149.192 72.8946 148.99 72.8291 148.797L72.6081 148.143C72.5901 148.189 72.5347 148.245 72.442 148.31C72.3506 148.372 72.2421 148.437 72.1163 148.504C71.992 148.569 71.8699 148.63 71.7502 148.689C71.6319 148.745 71.536 148.79 71.4628 148.826C71.2852 148.913 71.1249 149.011 70.9819 149.121C70.8402 149.227 70.7379 149.35 70.6752 149.491C70.6137 149.628 70.6137 149.788 70.6751 149.97C70.759 150.218 70.9143 150.375 71.141 150.44C71.369 150.502 71.6253 150.485 71.9099 150.389ZM77.4913 145.075L76.9108 145.474C76.8343 145.381 76.7396 145.297 76.6268 145.222C76.5153 145.145 76.3817 145.096 76.2259 145.075C76.0702 145.053 75.8884 145.077 75.6805 145.148C75.3959 145.244 75.1809 145.389 75.0355 145.585C74.8914 145.777 74.8531 145.974 74.9207 146.174C74.9807 146.351 75.0927 146.47 75.2567 146.529C75.4206 146.588 75.6515 146.606 75.9492 146.582L76.6968 146.518C77.1468 146.478 77.5088 146.528 77.7829 146.667C78.0564 146.804 78.248 147.035 78.3578 147.36C78.4479 147.626 78.4517 147.89 78.3692 148.152C78.2888 148.413 78.1328 148.65 77.9012 148.864C77.6696 149.077 77.3732 149.245 77.0119 149.367C76.5375 149.527 76.1101 149.557 75.7297 149.456C75.3492 149.355 75.0508 149.121 74.8343 148.753L75.4553 148.354C75.6044 148.583 75.79 148.729 76.0119 148.794C76.2359 148.857 76.4942 148.84 76.7869 148.741C77.12 148.628 77.3605 148.468 77.5086 148.261C77.658 148.051 77.6989 147.846 77.6313 147.646C77.5768 147.484 77.4745 147.368 77.3247 147.298C77.1741 147.225 76.9726 147.201 76.72 147.225L75.8835 147.306C75.4235 147.349 75.0577 147.298 74.7863 147.153C74.5161 147.006 74.3268 146.772 74.2184 146.451C74.1297 146.189 74.1249 145.932 74.2041 145.68C74.2852 145.428 74.4345 145.201 74.652 144.999C74.8715 144.797 75.1447 144.64 75.4717 144.53C75.932 144.374 76.3274 144.353 76.658 144.466C76.9907 144.579 77.2684 144.782 77.4913 145.075ZM79.9645 146.372L79.6536 145.492L79.799 145.443L81.1337 142.684L82.0179 142.385L80.5908 145.31L80.5302 145.33L79.9645 146.372ZM79.8714 148.292L77.7758 142.091L78.4904 141.85L80.586 148.051L79.8714 148.292ZM82.8265 147.294L80.2322 145.606L80.5731 144.938L83.7349 146.987L82.8265 147.294Z" fill="black"/>
<rect x="7.63327" y="74.0873" width="42.2193" height="49.315" rx="9.5" transform="rotate(-18.5825 7.63327 74.0873)" fill="#D9D9D9" stroke="black"/>
<line x1="17.808" y1="87.2635" x2="48.771" y2="76.9424" stroke="black"/>
<line x1="24.9037" y1="114.356" x2="42.3204" y2="108.551" stroke="black"/>
<line x1="23.6136" y1="104.68" x2="54.5766" y2="94.3591" stroke="black"/>
<line x1="21.0333" y1="97.5844" x2="51.9964" y2="87.2634" stroke="black"/>
<line x1="19.7432" y1="92.4239" x2="50.7062" y2="82.1029" stroke="black"/>
<path d="M20.6621 76.6033L20.4369 75.9372L25.0876 74.3655L25.3128 75.0316L23.3629 75.6906L25.2333 81.2254L24.4824 81.4792L22.612 75.9443L20.6621 76.6033ZM29.0178 80.0679C28.7231 80.1675 28.4369 80.2024 28.1592 80.1725C27.8808 80.1407 27.6351 80.0426 27.4222 79.8784C27.2086 79.7122 27.0506 79.4777 26.9483 79.1749C26.8582 78.9085 26.8377 78.6748 26.8868 78.4738C26.9351 78.2708 27.031 78.0922 27.1746 77.9379C27.3182 77.7837 27.4881 77.6476 27.6843 77.5295C27.8819 77.4088 28.0839 77.2978 28.2903 77.1965C28.5607 77.0647 28.7806 76.96 28.95 76.8825C29.1208 76.8023 29.2388 76.7253 29.3038 76.6516C29.3709 76.5772 29.385 76.4825 29.3461 76.3674L29.3379 76.3432C29.237 76.0445 29.0768 75.84 28.8573 75.7297C28.6399 75.6188 28.3667 75.6189 28.0377 75.7301C27.6965 75.8454 27.4543 76.0104 27.311 76.2253C27.1677 76.4401 27.0854 76.6457 27.0639 76.8418L26.3038 76.8288C26.3295 76.5053 26.4166 76.2307 26.5652 76.005C26.7152 75.7767 26.8997 75.5906 27.1188 75.4468C27.3392 75.3004 27.5665 75.1876 27.8006 75.1085C27.95 75.058 28.1277 75.0182 28.3337 74.989C28.5411 74.9572 28.7541 74.965 28.9726 75.0127C29.1931 75.0596 29.4011 75.1726 29.5966 75.3517C29.792 75.5308 29.9522 75.805 30.077 76.1744L31.1125 79.2385L30.398 79.48L30.1852 78.8502L30.1488 78.8625C30.1345 78.9798 30.0902 79.1151 30.0161 79.2683C29.9419 79.4216 29.8246 79.5703 29.6642 79.7145C29.5038 79.8587 29.2883 79.9765 29.0178 80.0679ZM28.9099 79.3892C29.1925 79.2937 29.4119 79.1576 29.5682 78.9811C29.7265 78.804 29.8254 78.6108 29.8649 78.4018C29.9065 78.1921 29.8946 77.9903 29.8291 77.7966L29.6081 77.1426C29.5901 77.1891 29.5347 77.2449 29.442 77.31C29.3506 77.3724 29.2421 77.4372 29.1163 77.5044C28.992 77.5689 28.8699 77.6304 28.7502 77.6888C28.6319 77.7446 28.536 77.7905 28.4628 77.8265C28.2852 77.9135 28.1249 78.0115 27.9819 78.1206C27.8402 78.2269 27.7379 78.3503 27.6752 78.4907C27.6137 78.6284 27.6137 78.7881 27.6751 78.9698C27.759 79.2181 27.9143 79.3748 28.141 79.4398C28.369 79.5022 28.6253 79.4853 28.9099 79.3892ZM34.4913 74.0754L33.9108 74.4739C33.8343 74.3806 33.7396 74.2968 33.6268 74.2225C33.5153 74.1454 33.3817 74.0961 33.2259 74.0745C33.0702 74.0529 32.8884 74.0773 32.6805 74.1475C32.3959 74.2437 32.1809 74.3895 32.0355 74.5848C31.8914 74.7774 31.8531 74.9737 31.9207 75.1735C31.9807 75.3511 32.0927 75.4696 32.2567 75.5289C32.4206 75.5882 32.6515 75.6057 32.9492 75.5816L33.6968 75.5179C34.1468 75.4783 34.5088 75.528 34.7829 75.667C35.0564 75.804 35.248 76.035 35.3578 76.3599C35.4479 76.6264 35.4517 76.8905 35.3692 77.1523C35.2888 77.4134 35.1328 77.6505 34.9012 77.8637C34.6696 78.0769 34.3732 78.2446 34.0119 78.3667C33.5375 78.527 33.1101 78.5567 32.7297 78.4559C32.3492 78.355 32.0508 78.1208 31.8343 77.7531L32.4553 77.3544C32.6044 77.5828 32.79 77.7293 33.0119 77.7937C33.2359 77.8575 33.4942 77.8399 33.7869 77.741C34.12 77.6284 34.3605 77.4684 34.5086 77.2609C34.658 77.0508 34.6989 76.8458 34.6313 76.6459C34.5768 76.4845 34.4745 76.3683 34.3247 76.2975C34.1741 76.2247 33.9726 76.2006 33.72 76.2252L32.8835 76.3055C32.4235 76.3485 32.0577 76.2978 31.7863 76.1534C31.5161 76.0063 31.3268 75.7723 31.2184 75.4513C31.1297 75.1889 31.1249 74.9319 31.2041 74.6802C31.2852 74.4279 31.4345 74.2009 31.652 73.9992C31.8715 73.7968 32.1447 73.6404 32.4717 73.5299C32.932 73.3743 33.3274 73.3532 33.658 73.4663C33.9907 73.5788 34.2684 73.7818 34.4913 74.0754ZM36.9645 75.3717L36.6536 74.4916L36.799 74.4425L38.1337 71.6839L39.0179 71.3851L37.5908 74.3099L37.5302 74.3303L36.9645 75.3717ZM36.8714 77.2923L34.7758 71.0914L35.4904 70.8499L37.586 77.0508L36.8714 77.2923ZM39.8265 76.2937L37.2322 74.6065L37.5731 73.938L40.7349 75.9867L39.8265 76.2937Z" fill="black"/>
<rect x="80.6333" y="121.087" width="42.2193" height="49.315" rx="9.5" transform="rotate(-18.5825 80.6333 121.087)" fill="#D9D9D9" stroke="black"/>
<line x1="90.808" y1="134.263" x2="121.771" y2="123.942" stroke="black"/>
<line x1="97.9037" y1="161.356" x2="115.32" y2="155.551" stroke="black"/>
<line x1="96.6136" y1="151.68" x2="127.577" y2="141.359" stroke="black"/>
<line x1="94.0333" y1="144.584" x2="124.996" y2="134.263" stroke="black"/>
<line x1="92.7432" y1="139.424" x2="123.706" y2="129.103" stroke="black"/>
<path d="M93.6621 123.603L93.4369 122.937L98.0876 121.366L98.3128 122.032L96.3629 122.691L98.2333 128.225L97.4824 128.479L95.612 122.944L93.6621 123.603ZM102.018 127.068C101.723 127.167 101.437 127.202 101.159 127.173C100.881 127.141 100.635 127.043 100.422 126.878C100.209 126.712 100.051 126.478 99.9483 126.175C99.8582 125.908 99.8377 125.675 99.8868 125.474C99.9351 125.271 100.031 125.092 100.175 124.938C100.318 124.784 100.488 124.648 100.684 124.53C100.882 124.409 101.084 124.298 101.29 124.197C101.561 124.065 101.781 123.96 101.95 123.883C102.121 123.802 102.239 123.725 102.304 123.652C102.371 123.577 102.385 123.482 102.346 123.367L102.338 123.343C102.237 123.044 102.077 122.84 101.857 122.73C101.64 122.619 101.367 122.619 101.038 122.73C100.697 122.845 100.454 123.01 100.311 123.225C100.168 123.44 100.085 123.646 100.064 123.842L99.3038 123.829C99.3295 123.505 99.4166 123.231 99.5652 123.005C99.7152 122.777 99.8997 122.591 100.119 122.447C100.339 122.3 100.566 122.188 100.801 122.108C100.95 122.058 101.128 122.018 101.334 121.989C101.541 121.957 101.754 121.965 101.973 122.013C102.193 122.06 102.401 122.173 102.597 122.352C102.792 122.531 102.952 122.805 103.077 123.174L104.113 126.239L103.398 126.48L103.185 125.85L103.149 125.863C103.134 125.98 103.09 126.115 103.016 126.268C102.942 126.422 102.825 126.57 102.664 126.714C102.504 126.859 102.288 126.976 102.018 127.068ZM101.91 126.389C102.192 126.294 102.412 126.158 102.568 125.981C102.726 125.804 102.825 125.611 102.865 125.402C102.907 125.192 102.895 124.99 102.829 124.797L102.608 124.143C102.59 124.189 102.535 124.245 102.442 124.31C102.351 124.372 102.242 124.437 102.116 124.504C101.992 124.569 101.87 124.63 101.75 124.689C101.632 124.745 101.536 124.79 101.463 124.826C101.285 124.913 101.125 125.011 100.982 125.121C100.84 125.227 100.738 125.35 100.675 125.491C100.614 125.628 100.614 125.788 100.675 125.97C100.759 126.218 100.914 126.375 101.141 126.44C101.369 126.502 101.625 126.485 101.91 126.389ZM107.491 121.075L106.911 121.474C106.834 121.381 106.74 121.297 106.627 121.222C106.515 121.145 106.382 121.096 106.226 121.075C106.07 121.053 105.888 121.077 105.68 121.148C105.396 121.244 105.181 121.389 105.035 121.585C104.891 121.777 104.853 121.974 104.921 122.174C104.981 122.351 105.093 122.47 105.257 122.529C105.421 122.588 105.651 122.606 105.949 122.582L106.697 122.518C107.147 122.478 107.509 122.528 107.783 122.667C108.056 122.804 108.248 123.035 108.358 123.36C108.448 123.626 108.452 123.89 108.369 124.152C108.289 124.413 108.133 124.65 107.901 124.864C107.67 125.077 107.373 125.245 107.012 125.367C106.538 125.527 106.11 125.557 105.73 125.456C105.349 125.355 105.051 125.121 104.834 124.753L105.455 124.354C105.604 124.583 105.79 124.729 106.012 124.794C106.236 124.857 106.494 124.84 106.787 124.741C107.12 124.628 107.361 124.468 107.509 124.261C107.658 124.051 107.699 123.846 107.631 123.646C107.577 123.484 107.475 123.368 107.325 123.298C107.174 123.225 106.973 123.201 106.72 123.225L105.883 123.306C105.423 123.349 105.058 123.298 104.786 123.153C104.516 123.006 104.327 122.772 104.218 122.451C104.13 122.189 104.125 121.932 104.204 121.68C104.285 121.428 104.435 121.201 104.652 120.999C104.871 120.797 105.145 120.64 105.472 120.53C105.932 120.374 106.327 120.353 106.658 120.466C106.991 120.579 107.268 120.782 107.491 121.075ZM109.965 122.372L109.654 121.492L109.799 121.443L111.134 118.684L112.018 118.385L110.591 121.31L110.53 121.33L109.965 122.372ZM109.871 124.292L107.776 118.091L108.49 117.85L110.586 124.051L109.871 124.292ZM112.827 123.294L110.232 121.606L110.573 120.938L113.735 122.987L112.827 123.294Z" fill="black"/>
<rect x="37.6333" y="90.0873" width="42.2193" height="49.315" rx="9.5" transform="rotate(-18.5825 37.6333 90.0873)" fill="#D9D9D9" stroke="black"/>
<line x1="47.808" y1="103.263" x2="78.771" y2="92.9424" stroke="black"/>
<line x1="54.9037" y1="130.356" x2="72.3204" y2="124.551" stroke="black"/>
<line x1="53.6136" y1="120.68" x2="84.5766" y2="110.359" stroke="black"/>
<line x1="51.0333" y1="113.584" x2="81.9964" y2="103.263" stroke="black"/>
<line x1="49.7432" y1="108.424" x2="80.7062" y2="98.1029" stroke="black"/>
<path d="M50.6621 92.6033L50.4369 91.9372L55.0876 90.3655L55.3128 91.0316L53.3629 91.6906L55.2333 97.2254L54.4824 97.4792L52.612 91.9443L50.6621 92.6033ZM59.0178 96.0679C58.7231 96.1675 58.4369 96.2024 58.1592 96.1725C57.8808 96.1407 57.6351 96.0426 57.4222 95.8784C57.2086 95.7122 57.0506 95.4777 56.9483 95.1749C56.8582 94.9085 56.8377 94.6748 56.8868 94.4738C56.9351 94.2708 57.031 94.0922 57.1746 93.9379C57.3182 93.7837 57.4881 93.6476 57.6843 93.5295C57.8819 93.4088 58.0839 93.2978 58.2903 93.1965C58.5607 93.0647 58.7806 92.96 58.95 92.8825C59.1208 92.8023 59.2388 92.7253 59.3038 92.6516C59.3709 92.5772 59.385 92.4825 59.3461 92.3674L59.3379 92.3432C59.237 92.0445 59.0768 91.84 58.8573 91.7297C58.6399 91.6188 58.3667 91.6189 58.0377 91.7301C57.6965 91.8454 57.4543 92.0104 57.311 92.2253C57.1677 92.4401 57.0854 92.6457 57.0639 92.8418L56.3038 92.8288C56.3295 92.5053 56.4166 92.2307 56.5652 92.005C56.7152 91.7767 56.8997 91.5906 57.1188 91.4468C57.3392 91.3004 57.5665 91.1876 57.8006 91.1085C57.95 91.058 58.1277 91.0182 58.3337 90.989C58.5411 90.9572 58.7541 90.965 58.9726 91.0127C59.1931 91.0596 59.4011 91.1726 59.5966 91.3517C59.792 91.5308 59.9522 91.805 60.077 92.1744L61.1125 95.2385L60.398 95.48L60.1852 94.8502L60.1488 94.8625C60.1345 94.9798 60.0902 95.1151 60.0161 95.2683C59.9419 95.4216 59.8246 95.5703 59.6642 95.7145C59.5038 95.8587 59.2883 95.9765 59.0178 96.0679ZM58.9099 95.3892C59.1925 95.2937 59.4119 95.1576 59.5682 94.9811C59.7265 94.804 59.8254 94.6108 59.8649 94.4018C59.9065 94.1921 59.8946 93.9903 59.8291 93.7966L59.6081 93.1426C59.5901 93.1891 59.5347 93.2449 59.442 93.31C59.3506 93.3724 59.2421 93.4372 59.1163 93.5044C58.992 93.5689 58.8699 93.6304 58.7502 93.6888C58.6319 93.7446 58.536 93.7905 58.4628 93.8265C58.2852 93.9135 58.1249 94.0115 57.9819 94.1206C57.8402 94.2269 57.7379 94.3503 57.6752 94.4907C57.6137 94.6284 57.6137 94.7881 57.6751 94.9698C57.759 95.2181 57.9143 95.3748 58.141 95.4398C58.369 95.5022 58.6253 95.4853 58.9099 95.3892ZM64.4913 90.0754L63.9108 90.4739C63.8343 90.3806 63.7396 90.2968 63.6268 90.2225C63.5153 90.1454 63.3817 90.0961 63.2259 90.0745C63.0702 90.0529 62.8884 90.0773 62.6805 90.1475C62.3959 90.2437 62.1809 90.3895 62.0355 90.5848C61.8914 90.7774 61.8531 90.9737 61.9207 91.1735C61.9807 91.3511 62.0927 91.4696 62.2567 91.5289C62.4206 91.5882 62.6515 91.6057 62.9492 91.5816L63.6968 91.5179C64.1468 91.4783 64.5088 91.528 64.7829 91.667C65.0564 91.804 65.248 92.035 65.3578 92.3599C65.4479 92.6264 65.4517 92.8905 65.3692 93.1523C65.2888 93.4134 65.1328 93.6505 64.9012 93.8637C64.6696 94.0769 64.3732 94.2446 64.0119 94.3667C63.5375 94.527 63.1101 94.5567 62.7297 94.4559C62.3492 94.355 62.0508 94.1208 61.8343 93.7531L62.4553 93.3544C62.6044 93.5828 62.79 93.7293 63.0119 93.7937C63.2359 93.8575 63.4942 93.8399 63.7869 93.741C64.12 93.6284 64.3605 93.4684 64.5086 93.2609C64.658 93.0508 64.6989 92.8458 64.6313 92.6459C64.5768 92.4845 64.4745 92.3683 64.3247 92.2975C64.1741 92.2247 63.9726 92.2006 63.72 92.2252L62.8835 92.3055C62.4235 92.3485 62.0577 92.2978 61.7863 92.1534C61.5161 92.0063 61.3268 91.7723 61.2184 91.4513C61.1297 91.1889 61.1249 90.9319 61.2041 90.6802C61.2852 90.4279 61.4345 90.2009 61.652 89.9992C61.8715 89.7968 62.1447 89.6404 62.4717 89.5299C62.932 89.3743 63.3274 89.3532 63.658 89.4663C63.9907 89.5788 64.2684 89.7818 64.4913 90.0754ZM66.9645 91.3717L66.6536 90.4916L66.799 90.4425L68.1337 87.6839L69.0179 87.3851L67.5908 90.3099L67.5302 90.3303L66.9645 91.3717ZM66.8714 93.2923L64.7758 87.0914L65.4904 86.8499L67.586 93.0508L66.8714 93.2923ZM69.8265 92.2937L67.2322 90.6065L67.5731 89.938L70.7349 91.9867L69.8265 92.2937Z" fill="black"/>
<rect x="110.633" y="137.087" width="42.2193" height="49.315" rx="9.5" transform="rotate(-18.5825 110.633 137.087)" fill="#D9D9D9" stroke="black"/>
<line x1="120.808" y1="150.263" x2="151.771" y2="139.942" stroke="black"/>
<line x1="127.904" y1="177.356" x2="145.32" y2="171.551" stroke="black"/>
<line x1="126.614" y1="167.68" x2="157.577" y2="157.359" stroke="black"/>
<line x1="124.033" y1="160.584" x2="154.996" y2="150.263" stroke="black"/>
<line x1="122.743" y1="155.424" x2="153.706" y2="145.103" stroke="black"/>
<path d="M123.662 139.603L123.437 138.937L128.088 137.366L128.313 138.032L126.363 138.691L128.233 144.225L127.482 144.479L125.612 138.944L123.662 139.603ZM132.018 143.068C131.723 143.167 131.437 143.202 131.159 143.173C130.881 143.141 130.635 143.043 130.422 142.878C130.209 142.712 130.051 142.478 129.948 142.175C129.858 141.908 129.838 141.675 129.887 141.474C129.935 141.271 130.031 141.092 130.175 140.938C130.318 140.784 130.488 140.648 130.684 140.53C130.882 140.409 131.084 140.298 131.29 140.197C131.561 140.065 131.781 139.96 131.95 139.883C132.121 139.802 132.239 139.725 132.304 139.652C132.371 139.577 132.385 139.482 132.346 139.367L132.338 139.343C132.237 139.044 132.077 138.84 131.857 138.73C131.64 138.619 131.367 138.619 131.038 138.73C130.697 138.845 130.454 139.01 130.311 139.225C130.168 139.44 130.085 139.646 130.064 139.842L129.304 139.829C129.329 139.505 129.417 139.231 129.565 139.005C129.715 138.777 129.9 138.591 130.119 138.447C130.339 138.3 130.566 138.188 130.801 138.108C130.95 138.058 131.128 138.018 131.334 137.989C131.541 137.957 131.754 137.965 131.973 138.013C132.193 138.06 132.401 138.173 132.597 138.352C132.792 138.531 132.952 138.805 133.077 139.174L134.113 142.239L133.398 142.48L133.185 141.85L133.149 141.863C133.134 141.98 133.09 142.115 133.016 142.268C132.942 142.422 132.825 142.57 132.664 142.714C132.504 142.859 132.288 142.976 132.018 143.068ZM131.91 142.389C132.192 142.294 132.412 142.158 132.568 141.981C132.726 141.804 132.825 141.611 132.865 141.402C132.907 141.192 132.895 140.99 132.829 140.797L132.608 140.143C132.59 140.189 132.535 140.245 132.442 140.31C132.351 140.372 132.242 140.437 132.116 140.504C131.992 140.569 131.87 140.63 131.75 140.689C131.632 140.745 131.536 140.79 131.463 140.826C131.285 140.913 131.125 141.011 130.982 141.121C130.84 141.227 130.738 141.35 130.675 141.491C130.614 141.628 130.614 141.788 130.675 141.97C130.759 142.218 130.914 142.375 131.141 142.44C131.369 142.502 131.625 142.485 131.91 142.389ZM137.491 137.075L136.911 137.474C136.834 137.381 136.74 137.297 136.627 137.222C136.515 137.145 136.382 137.096 136.226 137.075C136.07 137.053 135.888 137.077 135.68 137.148C135.396 137.244 135.181 137.389 135.035 137.585C134.891 137.777 134.853 137.974 134.921 138.174C134.981 138.351 135.093 138.47 135.257 138.529C135.421 138.588 135.651 138.606 135.949 138.582L136.697 138.518C137.147 138.478 137.509 138.528 137.783 138.667C138.056 138.804 138.248 139.035 138.358 139.36C138.448 139.626 138.452 139.89 138.369 140.152C138.289 140.413 138.133 140.65 137.901 140.864C137.67 141.077 137.373 141.245 137.012 141.367C136.538 141.527 136.11 141.557 135.73 141.456C135.349 141.355 135.051 141.121 134.834 140.753L135.455 140.354C135.604 140.583 135.79 140.729 136.012 140.794C136.236 140.857 136.494 140.84 136.787 140.741C137.12 140.628 137.361 140.468 137.509 140.261C137.658 140.051 137.699 139.846 137.631 139.646C137.577 139.484 137.475 139.368 137.325 139.298C137.174 139.225 136.973 139.201 136.72 139.225L135.883 139.306C135.423 139.349 135.058 139.298 134.786 139.153C134.516 139.006 134.327 138.772 134.218 138.451C134.13 138.189 134.125 137.932 134.204 137.68C134.285 137.428 134.435 137.201 134.652 136.999C134.871 136.797 135.145 136.64 135.472 136.53C135.932 136.374 136.327 136.353 136.658 136.466C136.991 136.579 137.268 136.782 137.491 137.075ZM139.965 138.372L139.654 137.492L139.799 137.443L141.134 134.684L142.018 134.385L140.591 137.31L140.53 137.33L139.965 138.372ZM139.871 140.292L137.776 134.091L138.49 133.85L140.586 140.051L139.871 140.292ZM142.827 139.294L140.232 137.606L140.573 136.938L143.735 138.987L142.827 139.294Z" fill="black"/>
<path d="M69.3026 73V29.3636H99.0895V37.929H79.8494V46.8778H97.1932V55.4645H79.8494V73H69.3026ZM102.973 37.929V29.3636H139.855V37.929H126.623V73H116.225V37.929H102.973Z" fill="black"/>
</svg>
