<svg width="200" height="200" viewBox="0 0 200 200" fill="none" xmlns="http://www.w3.org/2000/svg">
<circle cx="100" cy="100" r="100" fill="#FFE70D"/>
<circle cx="81" cy="169" r="19" fill="black"/>
<g filter="url(#filter0_d_2_36)">
<path d="M137 39C137 49.4934 128.717 58 118.5 58C108.283 58 100 49.4934 100 39C100 28.5066 108.283 20 118.5 20C128.717 20 137 28.5066 137 39Z" fill="black"/>
</g>
<g filter="url(#filter1_d_2_36)">
<path d="M56 94C56 104.493 47.7173 113 37.5 113C27.2827 113 19 104.493 19 94C19 83.5066 27.2827 75 37.5 75C47.7173 75 56 83.5066 56 94Z" fill="black"/>
</g>
<line x1="79.0902" y1="165.406" x2="116.09" y2="46.4062" stroke="black" stroke-width="4"/>
<line x1="35.7893" y1="92.4081" x2="106.789" y2="38.4081" stroke="black" stroke-width="4"/>
<line x1="121.184" y1="45.0085" x2="186.184" y2="51.0085" stroke="black" stroke-width="4"/>
<line x1="87.1056" y1="175.211" x2="199.106" y2="119.211" stroke="black" stroke-width="4"/>
<path d="M186.236 49.0971L188.048 52.5867L185.718 52.995L186.236 49.0971Z" fill="black"/>
<defs>
<filter id="filter0_d_2_36" x="96" y="20" width="45" height="46" filterUnits="userSpaceOnUse" color-interpolation-filters="sRGB">
<feFlood flood-opacity="0" result="BackgroundImageFix"/>
<feColorMatrix in="SourceAlpha" type="matrix" values="0 0 0 0 0 0 0 0 0 0 0 0 0 0 0 0 0 0 127 0" result="hardAlpha"/>
<feOffset dy="4"/>
<feGaussianBlur stdDeviation="2"/>
<feComposite in2="hardAlpha" operator="out"/>
<feColorMatrix type="matrix" values="0 0 0 0 0 0 0 0 0 0 0 0 0 0 0 0 0 0 0.25 0"/>
<feBlend mode="normal" in2="BackgroundImageFix" result="effect1_dropShadow_2_36"/>
<feBlend mode="normal" in="SourceGraphic" in2="effect1_dropShadow_2_36" result="shape"/>
</filter>
<filter id="filter1_d_2_36" x="15" y="75" width="45" height="46" filterUnits="userSpaceOnUse" color-interpolation-filters="sRGB">
<feFlood flood-opacity="0" result="BackgroundImageFix"/>
<feColorMatrix in="SourceAlpha" type="matrix" values="0 0 0 0 0 0 0 0 0 0 0 0 0 0 0 0 0 0 127 0" result="hardAlpha"/>
<feOffset dy="4"/>
<feGaussianBlur stdDeviation="2"/>
<feComposite in2="hardAlpha" operator="out"/>
<feColorMatrix type="matrix" values="0 0 0 0 0 0 0 0 0 0 0 0 0 0 0 0 0 0 0.25 0"/>
<feBlend mode="normal" in2="BackgroundImageFix" result="effect1_dropShadow_2_36"/>
<feBlend mode="normal" in="SourceGraphic" in2="effect1_dropShadow_2_36" result="shape"/>
</filter>
</defs>
</svg>
