<svg width="200" height="200" viewBox="0 0 200 200" fill="none" xmlns="http://www.w3.org/2000/svg">
<circle cx="100" cy="100" r="100" fill="#00DA09"/>
<line x1="21.8914" y1="77.8417" x2="86.6857" y2="169.248" stroke="black" stroke-width="2"/>
<line x1="61.2308" y1="55.858" x2="126.025" y2="147.264" stroke="black" stroke-width="2"/>
<line x1="86.2782" y1="168.913" x2="130.246" y2="188.583" stroke="black" stroke-width="2"/>
<line x1="126.203" y1="147.732" x2="130.831" y2="189.386" stroke="black" stroke-width="2"/>
<path d="M85.5877 169.321L95.0831 157.639C98.0973 153.931 102.34 151.424 107.042 150.574L124.927 147.338" stroke="black" stroke-width="2"/>
<line x1="129.449" y1="178.566" x2="123.663" y2="185.508" stroke="black" stroke-width="2"/>
<path d="M128.287 178.751L130.284 188.158L121.604 184.018L128.287 178.751Z" fill="black" stroke="black" stroke-width="2"/>
<path d="M19.735 59.2078L41.7374 43.6012C45.7916 40.7254 51.4095 41.6808 54.2852 45.735L67.8872 64.9113L31.2032 90.9319L17.6012 71.7556C14.7254 67.7014 15.6808 62.0835 19.735 59.2078Z" stroke="black" stroke-width="2"/>
<line x1="36.9171" y1="87.0764" x2="92.4551" y2="161.127" stroke="black" stroke-width="2"/>
<line x1="43.867" y1="82.4585" x2="97.0909" y2="155.352" stroke="black" stroke-width="2"/>
<line x1="50.8076" y1="76.6711" x2="105.189" y2="150.722" stroke="black" stroke-width="2"/>
<line x1="57.7453" y1="72.0367" x2="115.597" y2="149.558" stroke="black" stroke-width="2"/>
<path d="M145.466 52.0909C145.006 48.2045 143.139 45.1875 139.866 43.0398C136.594 40.892 132.58 39.8182 127.824 39.8182C124.347 39.8182 121.304 40.3807 118.696 41.5057C116.114 42.6307 114.094 44.1776 112.636 46.1463C111.205 48.1151 110.489 50.3523 110.489 52.858C110.489 54.9545 110.987 56.7571 111.984 58.2656C113.007 59.7486 114.311 60.9886 115.896 61.9858C117.482 62.9574 119.143 63.7628 120.882 64.402C122.621 65.0156 124.219 65.5142 125.676 65.8977L133.653 68.0455C135.699 68.5824 137.974 69.3239 140.48 70.2699C143.011 71.2159 145.428 72.5071 147.729 74.1435C150.055 75.7543 151.973 77.8253 153.482 80.3565C154.99 82.8878 155.744 85.9943 155.744 89.6761C155.744 93.9205 154.632 97.7557 152.408 101.182C150.209 104.608 146.987 107.331 142.743 109.351C138.524 111.371 133.398 112.381 127.364 112.381C121.739 112.381 116.868 111.473 112.751 109.658C108.661 107.842 105.439 105.311 103.087 102.064C100.76 98.8168 99.4432 95.0455 99.1364 90.75H108.955C109.21 93.7159 110.207 96.1705 111.946 98.1136C113.71 100.031 115.935 101.463 118.619 102.409C121.33 103.33 124.244 103.79 127.364 103.79C130.994 103.79 134.254 103.202 137.143 102.026C140.033 100.824 142.321 99.1619 144.009 97.0398C145.696 94.892 146.54 92.3864 146.54 89.5227C146.54 86.9148 145.811 84.7926 144.354 83.1562C142.896 81.5199 140.979 80.1903 138.601 79.1676C136.223 78.1449 133.653 77.25 130.892 76.483L121.227 73.7216C115.091 71.9574 110.233 69.4389 106.653 66.1662C103.074 62.8935 101.284 58.6108 101.284 53.3182C101.284 48.9205 102.473 45.0852 104.851 41.8125C107.254 38.5142 110.476 35.9574 114.516 34.142C118.581 32.3011 123.119 31.3807 128.131 31.3807C133.193 31.3807 137.693 32.2883 141.631 34.1037C145.568 35.8935 148.688 38.348 150.989 41.4673C153.315 44.5866 154.543 48.1278 154.67 52.0909H145.466Z" fill="black"/>
</svg>
